<svg version="1" xmlns="http://www.w3.org/2000/svg" width="800" height="800" viewBox="0 0 600.000000 600.000000"><path d="M36 2.9c-8.4 2.7-13.3 5.6-19.8 11.5-6.4 6-11.6 14.6-13.8 23-2 7.6-2 517.6 0 525.2 4.4 16.7 17.3 29.6 35.1 35.1 5.8 1.7 16.3 1.8 262 1.8 213.6 0 256.9-.2 261.5-1.4 17.5-4.3 31.2-17.5 36.4-35 1.5-5 1.6-29.1 1.6-263.1 0-234-.1-258.1-1.6-263.1-5.1-17.1-18.2-30.1-34.8-34.5-4.2-1.1-48.1-1.4-263.1-1.3C55 1.1 41.2 1.2 36 2.9zm457.3 50C514 58.2 531 71.8 541 91.1c5.7 10.9 8 20.8 8 33.9 0 13.1-2.3 23-8 33.8-7.7 14.8-19.2 26.1-33.8 33.2-19.7 9.6-45.4 9.5-64.8-.3-15-7.6-25.7-18.1-33.4-32.9-5.7-10.8-8-20.7-8-33.8 0-18 5.5-33.5 16.9-47.6 8.9-11 24.2-20.7 38.5-24.4 9.9-2.6 26.8-2.6 36.9-.1z"/><path d="M468.4 76c-19.3 2.8-34.8 15.8-40.5 34-2.8 8.8-2.8 21.2 0 30 11.1 35.3 56.7 46.1 82.6 19.5 21.7-22.4 17.2-59.8-9.2-76.5-8.6-5.5-22.7-8.5-32.9-7z"/></svg>